<svg width="149" height="124" viewBox="0 0 149 124" fill="none" xmlns="http://www.w3.org/2000/svg">
<g opacity="0.6">
<path d="M95.4212 44.3142C95.3717 44.3206 95.3215 44.3172 95.2733 44.3042C95.2251 44.2912 95.1799 44.2687 95.1404 44.2382C95.1009 44.2077 95.0678 44.1697 95.043 44.1264C95.0182 44.083 95.0022 44.0353 94.9959 43.9857C94.9401 43.6278 94.8854 43.2709 94.8317 42.9151C93.9154 40.7114 93.0681 38.4683 92.1485 36.2678C91.0385 33.6093 90.0007 30.8801 89.3816 28.0573C89.3122 28.0489 89.2459 28.0236 89.1886 27.9835C89.1313 27.9434 89.0848 27.8898 89.0532 27.8274C86.8626 23.9783 82.9478 21.3033 81.6637 16.9222C81.5438 16.51 82.1169 16.2801 82.3074 16.6151C82.3713 16.5437 82.4504 16.4876 82.5389 16.4509C84.9265 15.4295 87.4652 14.9319 89.999 14.4294C92.7068 13.8941 95.3687 13.096 98.0207 12.3325C103.558 10.7396 109.075 9.09587 114.655 7.6541C116.188 7.25671 117.721 6.86699 119.253 6.48492L119.017 6.33713C118.95 6.29557 118.902 6.22988 118.882 6.15373C118.863 6.07758 118.873 5.99684 118.912 5.9283C118.95 5.85976 119.014 5.80871 119.089 5.78576C119.164 5.76281 119.245 5.76973 119.316 5.80509C119.618 5.93285 119.911 6.08211 120.192 6.25174L120.685 6.12858C120.339 5.93386 120.009 5.71087 119.7 5.46189C119.463 5.26648 119.754 4.92164 120.007 5.04972C120.519 5.30753 121.032 5.60311 121.537 5.91511C124.71 5.13128 127.881 4.3562 131.052 3.58989C133.668 2.95111 136.259 2.20723 138.852 1.47485C141.251 0.798304 143.881 -0.277275 146.405 0.0659259C146.43 0.0678799 146.453 0.0780292 146.471 0.094726C146.489 0.111423 146.5 0.133684 146.504 0.157884C146.547 0.155046 146.591 0.16319 146.63 0.181562C146.669 0.199934 146.703 0.227936 146.729 0.262976C146.766 0.272495 146.801 0.290342 146.831 0.315179C146.86 0.340016 146.884 0.3712 146.899 0.40641C146.915 0.441619 146.923 0.479941 146.922 0.518513C146.921 0.557085 146.911 0.594913 146.893 0.629168C145.126 4.45528 142.146 7.65246 139.996 11.2651C137.64 15.2324 135.249 19.1817 132.965 23.1934C130.802 26.9916 128.653 30.8374 126.725 34.7604C125.718 36.8048 124.945 38.9149 124.191 41.0611C123.559 42.8675 123.127 44.7444 122.132 46.4013C122.124 46.4124 122.116 46.4228 122.107 46.4325C122.28 46.7116 121.877 47.068 121.58 46.8266C119.759 45.3487 117.542 44.503 115.407 43.5982C113.08 42.6129 110.801 41.4864 108.502 40.4339C106.734 39.6227 104.955 38.8312 103.193 38.0068C102.197 39.2811 100.894 40.2762 99.6973 41.3485C98.5675 42.3568 97.8122 43.6951 96.4476 44.4357C96.3919 44.4656 96.3312 44.4851 96.2686 44.4931C96.2056 44.549 96.1304 44.5894 96.0489 44.6109C95.9675 44.6325 95.8822 44.6346 95.7998 44.6172C95.7174 44.5998 95.6402 44.5633 95.5745 44.5107C95.5087 44.4581 95.4563 44.3907 95.4212 44.3142ZM92.8185 35.6422C93.2438 36.6143 93.7052 37.5881 94.1634 38.5668C93.9039 36.905 93.6281 35.2464 93.3095 33.5879C93.2082 33.5472 93.1216 33.4767 93.0611 33.3858C93.0007 33.295 92.9692 33.1879 92.9708 33.0787C92.9724 32.9695 93.007 32.8634 93.0701 32.7743C93.1332 32.6853 93.2218 32.6174 93.3243 32.5797C93.3961 32.4852 93.4944 32.4143 93.6067 32.376C95.8071 31.5944 97.8417 30.1247 99.7416 28.788C101.967 27.2247 104.231 25.7189 106.532 24.2706C110.936 21.4954 115.563 19.1801 120.107 16.6561C124.651 14.1322 129.006 11.3571 133.351 8.54413C137.167 6.08097 140.904 3.36163 144.845 1.06597C143.284 1.68669 142.028 2.48311 140.591 3.32551C138.773 4.39124 136.65 5.15646 134.807 6.17292C129.832 8.90977 124.805 11.5481 119.726 14.0879C114.8 16.562 109.855 19 104.891 21.4018C100.072 23.7287 95.1454 26.0868 90.0548 27.7765C89.9957 27.7968 89.9335 27.8068 89.8709 27.806L89.8397 27.8504C90.6559 30.5204 91.6969 33.0821 92.8185 35.6389V35.6422ZM138.661 2.33368C136.092 3.15473 133.502 3.90572 130.891 4.58665C128.173 5.2944 125.45 5.98572 122.728 6.68197C123.002 6.86425 123.271 7.04981 123.536 7.23208C123.733 7.36673 123.562 7.69023 123.352 7.5605C122.94 7.30597 122.498 7.07937 122.051 6.8544L121.381 7.02682C121.917 7.4109 122.484 7.74771 123.078 8.03343C123.111 8.05726 123.135 8.09157 123.146 8.13084C123.158 8.17012 123.156 8.21208 123.14 8.24998C123.125 8.28788 123.097 8.31952 123.062 8.33981C123.026 8.3601 122.985 8.36786 122.945 8.36185C122.105 8.06381 121.296 7.68834 120.526 7.24029C118.527 7.76248 116.526 8.28358 114.522 8.80358C109.095 10.2388 103.724 11.8595 98.336 13.4327C95.6873 14.2078 93.0271 15.0058 90.3209 15.5526C87.7871 16.065 85.255 16.5658 82.869 17.5954C82.8135 17.6188 82.7548 17.6337 82.6949 17.6398C84.2467 21.1752 87.549 23.5711 89.6065 26.8142C89.6497 26.781 89.6972 26.7539 89.7478 26.7338C94.633 24.8256 99.4198 22.7139 104.162 20.4937C103.717 20.3985 103.274 20.3 102.826 20.2146C101.692 19.9945 100.487 19.9124 99.3886 19.5577C99.2835 19.5249 99.3377 19.3804 99.4395 19.3935C101.146 19.722 102.888 19.9945 104.602 20.2852L106.054 19.6021C105.307 19.4494 104.568 19.2572 103.812 19.1357C102.754 18.9854 101.71 18.7442 100.692 18.4148C100.679 18.4088 100.667 18.3978 100.661 18.384C100.655 18.3702 100.654 18.3545 100.659 18.3402C100.664 18.3258 100.674 18.3137 100.687 18.3062C100.7 18.2988 100.715 18.2965 100.73 18.2999C101.743 18.5873 102.786 18.6973 103.827 18.8451C104.745 18.9732 105.634 19.2063 106.55 19.3689L107.589 18.8763C105.783 18.5478 104.013 18.111 102.216 17.7613C102.162 17.7498 102.179 17.6578 102.234 17.6644C104.205 17.891 106.146 18.3065 108.102 18.63L109.359 18.0404C107.428 17.8374 105.522 17.4413 103.67 16.8581C103.581 16.8302 103.625 16.7054 103.714 16.7235C105.76 17.1422 107.831 17.3934 109.878 17.7892L111.222 17.1323C109.321 16.9018 107.444 16.5056 105.612 15.9484C105.601 15.9459 105.592 15.9393 105.586 15.93C105.58 15.9207 105.578 15.9094 105.58 15.8986C105.582 15.8877 105.588 15.8781 105.597 15.8718C105.606 15.8654 105.618 15.8629 105.629 15.8646C107.676 15.9747 109.734 16.5625 111.767 16.8663L112.665 16.4279C110.933 16.0995 109.254 15.3999 107.487 15.3195C107.463 15.3195 107.44 15.3098 107.422 15.2925C107.405 15.2753 107.396 15.2519 107.396 15.2275C107.396 15.2031 107.405 15.1797 107.422 15.1625C107.44 15.1452 107.463 15.1355 107.487 15.1355C108.398 15.1684 109.302 15.3067 110.181 15.5477C111.126 15.7793 112.115 15.9123 113.041 16.2046C113.054 16.2101 113.066 16.2173 113.077 16.2259L114.123 15.7136C112.578 15.3851 111.074 14.8925 109.515 14.6511C109.399 14.6331 109.402 14.4541 109.524 14.4672C111.24 14.656 112.936 15.1241 114.632 15.464L115.69 14.9451C114.289 14.7598 112.902 14.4856 111.537 14.124C111.373 14.0797 111.456 13.8383 111.616 13.881C113.118 14.2882 114.659 14.4574 116.194 14.702L117.043 14.2833C115.849 14.1076 114.668 13.8514 113.48 13.6445C113.335 13.6199 113.343 13.39 113.491 13.4146C114.824 13.6396 116.155 13.876 117.494 14.0616L118.227 13.702C117.25 13.5558 116.271 13.3259 115.309 13.1404C115.2 13.119 115.235 12.9318 115.343 12.9499C116.447 13.1305 117.595 13.2274 118.688 13.4754L119.646 13.0057C118.719 12.8842 117.805 12.6494 116.884 12.4983C116.767 12.4786 116.77 12.2947 116.892 12.3095C117.967 12.4523 119.027 12.6379 120.107 12.7775L120.408 12.6297L120.964 12.3555C120.389 12.2832 119.815 12.1798 119.243 12.1042C119.128 12.0878 119.132 11.9104 119.253 11.9187C119.989 11.9712 120.731 12.0385 121.462 12.1091L122.015 11.8349C121.693 11.7852 121.375 11.7145 121.063 11.6231C121.032 11.6115 121.006 11.5884 120.992 11.5585C120.978 11.5286 120.975 11.4942 120.986 11.4627C120.996 11.4312 121.018 11.405 121.048 11.3896C121.077 11.3742 121.111 11.3707 121.143 11.38C121.582 11.5003 122.032 11.5746 122.486 11.6017L123.129 11.2832L123.038 11.2684C122.82 11.2372 122.598 11.2093 122.381 11.1846C122.353 11.1803 122.327 11.1656 122.309 11.1434C122.291 11.1212 122.281 11.0931 122.283 11.0645C122.284 11.0358 122.296 11.0086 122.316 10.988C122.336 10.9675 122.363 10.9551 122.391 10.9531C122.801 10.9371 123.211 10.9679 123.613 11.0451C127.576 9.07453 131.517 7.05254 135.436 4.97911C138.663 3.26475 142.804 1.03805 145.946 0.354933C143.456 0.530639 141.013 1.58323 138.661 2.33368ZM108.598 39.3977C111.015 40.5472 113.419 41.7131 115.847 42.8248C117.713 43.6803 119.624 44.5112 121.266 45.7296C122.225 44.0875 122.659 42.2155 123.291 40.4355C123.972 38.458 124.758 36.5186 125.648 34.6257C127.536 30.6978 129.743 26.8832 131.899 23.0965C134.182 19.0865 136.61 15.1635 139.006 11.2224C141.111 7.76084 143.642 4.58665 145.903 1.22361C141.985 4.05953 137.857 6.64256 133.837 9.34219C129.418 12.298 124.935 15.1651 120.293 17.7678C115.755 20.3098 111.156 22.6646 106.76 25.4595C104.461 26.9209 102.211 28.4547 99.9912 30.0311C98.4279 31.1412 96.7727 32.2808 95.0058 33.0821C97.0338 33.8408 98.9764 34.8014 100.917 35.7686C103.446 37.0265 106.034 38.1875 108.598 39.3977ZM102.66 37.7457C102.156 37.5076 101.651 37.2695 101.152 37.0232C98.7383 35.8392 96.3474 34.6027 93.7923 33.7505C93.8662 33.9787 93.9384 34.2103 94.0107 34.4418C94.0352 34.4453 94.059 34.4525 94.0813 34.4632C95.3786 35.0412 96.6069 35.7456 97.8975 36.3351C99.2654 36.9591 100.617 37.5815 101.878 38.4026C102.142 38.1858 102.402 37.9658 102.66 37.7457ZM101.674 38.5668C100.488 37.9652 99.2722 37.4253 98.0306 36.9493C96.7169 36.4189 95.4919 35.7341 94.2159 35.143C94.2991 35.4156 94.3812 35.6893 94.4623 35.964L94.5 35.9788C96.6085 37.0659 98.7695 38.2778 100.972 39.1399C101.21 38.9428 101.447 38.7518 101.681 38.5668H101.674ZM100.799 39.2729C99.7 38.8991 98.6227 38.4638 97.5724 37.969C96.62 37.5273 95.6134 37.148 94.6708 36.6866C94.771 37.0462 94.8679 37.4058 94.9615 37.7687C95.7973 37.8902 96.5707 38.3944 97.3573 38.6899C98.2736 39.0364 99.116 39.5258 100.013 39.9035C100.28 39.6851 100.543 39.4765 100.806 39.2663L100.799 39.2729ZM99.0405 40.7015C99.2933 40.4897 99.5479 40.2828 99.804 40.0759C99.0519 39.8411 98.3261 39.5323 97.5757 39.2811C96.7891 39.0151 95.9336 38.5963 95.1207 38.3829C95.1831 38.6407 95.2423 38.9001 95.2981 39.1579C96.5077 39.7459 97.7476 40.2693 99.0125 40.7262L99.0405 40.7015ZM96.1881 43.4258C96.4235 43.2721 96.6469 43.1008 96.8565 42.9134C96.5166 42.8084 96.1869 42.6732 95.8712 42.5095C95.9796 42.81 96.0879 43.1154 96.1881 43.4225V43.4258ZM95.7595 41.8477C96.2172 42.1296 96.6922 42.3824 97.1816 42.6047C97.3573 42.4307 97.5248 42.25 97.6923 42.0677C97.3261 41.9446 96.9648 41.8099 96.6019 41.6769C96.3096 41.5702 95.9943 41.4881 95.6971 41.3715C95.7201 41.5226 95.7415 41.6868 95.7595 41.851V41.8477ZM97.9862 41.7459C98.2128 41.4979 98.4444 41.2533 98.689 41.0184C98.1288 40.8638 97.5801 40.6702 97.0469 40.4388C96.5215 40.2253 95.9763 40.0512 95.4475 39.8443C95.5034 40.1334 95.5559 40.424 95.6035 40.713C96.395 41.048 97.1882 41.4027 97.9862 41.7426V41.7459Z" fill="#50735F"/>
<path d="M111.142 43.7197C113.209 44.1877 115.04 45.3996 116.946 46.2847C118.978 47.2223 120.988 48.247 122.934 49.3324C122.96 49.3474 122.985 49.3656 123.007 49.3866C123.539 48.5426 123.751 47.5803 124.014 46.6148C124.31 45.5293 124.847 44.5687 125.359 43.5736C126.599 41.1682 127.708 38.697 128.679 36.171C128.685 36.1578 128.695 36.147 128.708 36.1407C128.72 36.1344 128.735 36.1328 128.749 36.1364C128.763 36.14 128.775 36.1485 128.783 36.1603C128.791 36.1721 128.794 36.1864 128.793 36.2005C128.42 38.7655 127.219 41.2073 126.057 43.4964C125.456 44.682 124.856 45.7954 124.495 47.0877C124.211 48.091 123.927 49.0582 123.298 49.899C123.277 49.9248 123.251 49.9459 123.221 49.9608C123.191 49.9758 123.158 49.9842 123.125 49.9856C123.092 49.987 123.058 49.9813 123.027 49.9689C122.996 49.9566 122.968 49.9377 122.945 49.9138C122.895 49.9501 122.836 49.9709 122.775 49.9735C122.713 49.9761 122.653 49.9605 122.6 49.9285C120.776 48.9154 118.901 47.9367 117.017 47.0335C115.046 46.0942 113.143 44.7345 111.033 44.1664C110.974 44.152 110.923 44.1147 110.891 44.0627C110.859 44.0106 110.85 43.9481 110.864 43.8889C110.878 43.8296 110.916 43.7785 110.968 43.7468C111.02 43.7151 111.082 43.7054 111.142 43.7197Z" fill="#50735F"/>
<path d="M96.7724 33.3581C96.7332 33.3449 96.6974 33.3234 96.6673 33.2951C96.6373 33.2667 96.6137 33.2322 96.5983 33.1939C96.5441 33.2168 96.4916 33.2415 96.4341 33.2628C96.1057 33.3925 95.9546 32.8671 96.2798 32.7406C99.1978 31.6158 101.362 29.151 104.137 27.8143C104.166 27.7971 104.2 27.7919 104.232 27.7997C104.264 27.8076 104.292 27.8279 104.309 27.8562C104.326 27.8845 104.331 27.9185 104.323 27.9507C104.316 27.9828 104.295 28.0106 104.267 28.0278C101.92 29.642 99.7824 31.693 97.1878 32.9344C98.2831 33.4008 99.2963 34.0412 100.357 34.5765C101.897 35.3598 103.477 36.0544 105.031 36.8196C105.155 36.882 105.072 37.1021 104.939 37.0495C103.582 36.5175 102.231 35.9723 100.904 35.3729C99.518 34.7358 98.2043 33.8852 96.7724 33.3581Z" fill="#50735F"/>
<path d="M135.009 9.3947C137.899 7.71482 140.354 5.33212 143.155 3.50774C143.474 3.30084 143.778 3.80332 143.461 4.00858C140.646 5.82968 138.13 8.06952 135.158 9.64101C134.996 9.72804 134.848 9.48994 135.009 9.3947Z" fill="#50735F"/>
<path d="M145.944 4.51113C146.653 3.47496 147.676 2.40595 148.049 1.18915C148.059 1.16206 148.078 1.13956 148.104 1.12609C148.129 1.11261 148.159 1.10914 148.186 1.11635C148.214 1.12356 148.238 1.14094 148.254 1.16505C148.27 1.18917 148.276 1.21827 148.271 1.24662C148.123 2.28772 147.373 3.19745 146.816 4.05791C146.034 5.26322 145.228 6.44553 144.486 7.67055C144.31 7.9612 143.845 7.70175 144.026 7.41273C144.64 6.43075 145.287 5.47176 145.944 4.51113Z" fill="#50735F"/>
<path d="M87.9576 23.1309C88.7724 24.0683 89.5048 25.0743 90.1466 26.1376C90.1702 26.181 90.1762 26.2319 90.1633 26.2796C90.1503 26.3273 90.1195 26.3682 90.0772 26.3938C90.035 26.4194 89.9844 26.4277 89.9362 26.417C89.8879 26.4063 89.8456 26.3774 89.8181 26.3363C89.0923 25.0932 88.1153 23.8616 87.1826 22.7729C86.3697 21.8271 85.3565 20.9978 84.7358 19.9058C84.7236 19.8818 84.7209 19.854 84.7284 19.8281C84.7358 19.8022 84.7527 19.78 84.7758 19.7661C84.7989 19.7522 84.8264 19.7475 84.8528 19.753C84.8792 19.7585 84.9025 19.7738 84.9181 19.7958C85.7408 21.0241 86.997 21.9946 87.9576 23.1309Z" fill="#50735F"/>
<path d="M90.9223 25.737C90.9483 25.7805 90.9558 25.8326 90.9433 25.8817C90.9309 25.9308 90.8994 25.973 90.8558 25.9989C90.8123 26.0248 90.7602 26.0323 90.7111 26.0199C90.662 26.0074 90.6198 25.9759 90.5939 25.9324C89.3147 23.9356 87.6069 22.1851 85.996 20.4527C85.9041 20.3541 86.0436 20.2063 86.1422 20.3016C87.8565 21.9667 89.6645 23.6909 90.9223 25.737Z" fill="#50735F"/>
<path d="M91.6149 25.54C91.766 25.7502 91.4211 25.9587 91.2717 25.7485C90.114 24.1245 88.9185 22.1934 87.3306 20.9437C87.2896 20.9109 87.3306 20.8452 87.3799 20.8567C88.127 21.0455 88.8578 22.0899 89.3504 22.6384C90.1587 23.5626 90.9147 24.5313 91.6149 25.54Z" fill="#50735F"/>
<path d="M92.4704 25.0374C92.5722 25.2476 92.2734 25.4381 92.1584 25.2279C91.8021 24.5793 91.2109 24.0144 90.7281 23.4528C90.1255 22.7549 89.4621 22.1079 88.8003 21.4675C88.6886 21.3591 88.8512 21.1916 88.9645 21.2934C89.6608 21.9027 90.3307 22.5316 90.9629 23.2065C91.4802 23.7566 92.1354 24.3527 92.4704 25.0374Z" fill="#50735F"/>
<path d="M92.717 25.09C92.1291 23.9077 90.9599 23.0275 90.418 21.8058C90.4157 21.8019 90.4145 21.7975 90.4146 21.793C90.4148 21.7884 90.4163 21.7841 90.4189 21.7804C90.4215 21.7767 90.4252 21.7739 90.4294 21.7723C90.4336 21.7707 90.4383 21.7703 90.4427 21.7713C90.7481 21.8173 91.1948 22.5727 91.3672 22.7796C91.9156 23.4364 92.6546 24.1179 93.0093 24.9143C93.1012 25.1097 92.8172 25.292 92.717 25.09Z" fill="#50735F"/>
<path d="M93.4505 24.7403C93.1828 24.443 93.0088 24.0834 92.769 23.755C92.4505 23.328 92.1631 22.8814 91.833 22.461C91.7509 22.3543 91.9299 22.2114 92.0186 22.3132C92.613 23.0128 93.1089 23.7911 93.6804 24.4972C93.8085 24.6647 93.595 24.9028 93.4505 24.7403Z" fill="#50735F"/>
<path d="M84.5897 23.021C85.373 23.8289 86.0676 24.7272 86.8378 25.5597C87.5636 26.3545 88.3534 27.2281 88.8559 28.1871C88.8751 28.2239 88.8814 28.2661 88.874 28.307C89.1811 29.2922 89.4717 30.289 89.7624 31.2825C89.9955 32.0871 90.3158 32.8638 90.3896 33.7046C90.3896 33.7768 90.2747 33.7965 90.2616 33.7243C89.9233 31.9426 89.1121 30.1018 88.4848 28.3989C88.4725 28.3638 88.4725 28.3256 88.4848 28.2905C87.4388 26.3857 85.6505 24.9521 84.4928 23.108C84.4838 23.0949 84.4799 23.0789 84.4818 23.0631C84.4837 23.0473 84.4913 23.0327 84.5031 23.0221C84.515 23.0114 84.5303 23.0054 84.5462 23.0053C84.5622 23.0051 84.5776 23.0107 84.5897 23.021Z" fill="#50735F"/>
</g>
<path opacity="0.6" d="M88 45.4998C74 40 46.6 35.9998 43 51.9998C38.5 71.9998 45.5384 94.1857 55 95.4998C73 97.9998 77.5 71.9998 64.5 67.4998C54.9328 64.1881 30.8188 72.5671 21 82.9998C13 91.5 2.5 110.5 1 123" stroke="#50735F" stroke-dasharray="4 4"/>
</svg>
